HIERARCHY
ROOT Hips
{
  OFFSET -560.437 93.0064 908.995
  CHANNELS 6 Xposition Yposition Zposition Zrotation Xrotation Yrotation
  JOINT Spine
  {
    OFFSET 0 8 2.70537e-05
    CHANNELS 6 Xposition Yposition Zposition Zrotation Xrotation Yrotation
    JOINT Spine1
    {
      OFFSET 4.96931e-05 8 -6.9493e-05
      CHANNELS 6 Xposition Yposition Zposition Zrotation Xrotation Yrotation
      JOINT Spine2
      {
        OFFSET -2.37959e-05 8 3.35147e-05
        CHANNELS 6 Xposition Yposition Zposition Zrotation Xrotation Yrotation
        JOINT Spine3
        {
          OFFSET 0 8 0
          CHANNELS 6 Xposition Yposition Zposition Zrotation Xrotation Yrotation
          JOINT Neck
          {
            OFFSET 0.000298671 17 0.000269284
            CHANNELS 6 Xposition Yposition Zposition Zrotation Xrotation Yrotation
            JOINT Head
            {
              OFFSET -2.4522e-05 10.8 -4.50733e-05
              CHANNELS 6 Xposition Yposition Zposition Zrotation Xrotation Yrotation
              End Site
              {
                OFFSET 0 20.25 0
              }
            }
          }
          JOINT LeftShoulder
          {
            OFFSET 5.00035 16.9999 0.000351065
            CHANNELS 6 Xposition Yposition Zposition Zrotation Xrotation Yrotation
            JOINT LeftShoulder2
            {
              OFFSET 6.45 0 0
              CHANNELS 6 Xposition Yposition Zposition Zrotation Xrotation Yrotation
              JOINT LeftArm
              {
                OFFSET 6.45008 0.000485015 0.00117677
                CHANNELS 6 Xposition Yposition Zposition Zrotation Xrotation Yrotation
                JOINT LeftForeArm
                {
                  OFFSET -3.66708e-05 -32.4 -2
                  CHANNELS 6 Xposition Yposition Zposition Zrotation Xrotation Yrotation
                  JOINT LeftHand
                  {
                    OFFSET 7.89505e-05 -25.65 2.00005
                    CHANNELS 6 Xposition Yposition Zposition Zrotation Xrotation Yrotation
                    JOINT LeftHandThumb1
                    {
                      OFFSET -0.499973 -1.49995 2.64994
                      CHANNELS 6 Xposition Yposition Zposition Zrotation Xrotation Yrotation
                      JOINT LeftHandThumb2
                      {
                        OFFSET -4.97918e-05 -3.79996 3.69997
                        CHANNELS 6 Xposition Yposition Zposition Zrotation Xrotation Yrotation
                        JOINT LeftHandThumb3
                        {
                          OFFSET -5.0422e-05 -2.99996 2.70004
                          CHANNELS 6 Xposition Yposition Zposition Zrotation Xrotation Yrotation
                          End Site
                          {
                            OFFSET 3.05551e-05 -2.30001 1.79999
                          }
                        }
                      }
                    }
                    JOINT LeftHandIndex
                    {
                      OFFSET -1.46823e-05 -1.90004 1.60006
                      CHANNELS 6 Xposition Yposition Zposition Zrotation Xrotation Yrotation
                      JOINT LeftHandIndex1
                      {
                        OFFSET 0 -8.3 1.89994
                        CHANNELS 6 Xposition Yposition Zposition Zrotation Xrotation Yrotation
                        JOINT LeftHandIndex2
                        {
                          OFFSET -4.55323e-05 -4.49999 -5.68969e-05
                          CHANNELS 6 Xposition Yposition Zposition Zrotation Xrotation Yrotation
                          JOINT LeftHandIndex3
                          {
                            OFFSET 2.90802e-05 -3.4 -1.62269e-05
                            CHANNELS 6 Xposition Yposition Zposition Zrotation Xrotation Yrotation
                            End Site
                            {
                              OFFSET -4.69126e-05 -2.60009 9.17294e-05
                            }
                          }
                        }
                      }
                    }
                    JOINT LeftHandMiddle
                    {
                      OFFSET -0.250005 -2.19997 0.400109
                      CHANNELS 6 Xposition Yposition Zposition Zrotation Xrotation Yrotation
                      JOINT LeftHandMiddle1
                      {
                        OFFSET -5.18951e-05 -8.30008 0.999938
                        CHANNELS 6 Xposition Yposition Zposition Zrotation Xrotation Yrotation
                        JOINT LeftHandMiddle2
                        {
                          OFFSET 2.1108e-05 -4.64999 1.4357e-05
                          CHANNELS 6 Xposition Yposition Zposition Zrotation Xrotation Yrotation
                          JOINT LeftHandMiddle3
                          {
                            OFFSET 0 -3.3 1.3108e-05
                            CHANNELS 6 Xposition Yposition Zposition Zrotation Xrotation Yrotation
                            End Site
                            {
                              OFFSET -2.31006e-05 -2.69996 0
                            }
                          }
                        }
                      }
                    }
                    JOINT LeftHandRing
                    {
                      OFFSET -0.500031 -2.14998 -0.800015
                      CHANNELS 6 Xposition Yposition Zposition Zrotation Xrotation Yrotation
                      JOINT LeftHandRing1
                      {
                        OFFSET 2.18276e-05 -7.75003 -0.200021
                        CHANNELS 6 Xposition Yposition Zposition Zrotation Xrotation Yrotation
                        JOINT LeftHandRing2
                        {
                          OFFSET 0 -3.79997 0.000112886
                          CHANNELS 6 Xposition Yposition Zposition Zrotation Xrotation Yrotation
                          JOINT LeftHandRing3
                          {
                            OFFSET 2.88198e-05 -3.39993 3.20331e-05
                            CHANNELS 6 Xposition Yposition Zposition Zrotation Xrotation Yrotation
                            End Site
                            {
                              OFFSET 3.67502e-05 -2.60004 -3.24118e-05
                            }
                          }
                        }
                      }
                    }
                    JOINT LeftHandPinky
                    {
                      OFFSET -0.749985 -1.74999 -1.84997
                      CHANNELS 6 Xposition Yposition Zposition Zrotation Xrotation Yrotation
                      JOINT LeftHandPinky1
                      {
                        OFFSET 6.92736e-05 -7.15004 -1.00003
                        CHANNELS 6 Xposition Yposition Zposition Zrotation Xrotation Yrotation
                        JOINT LeftHandPinky2
                        {
                          OFFSET -2.64489e-05 -2.99996 -4.85733e-05
                          CHANNELS 6 Xposition Yposition Zposition Zrotation Xrotation Yrotation
                          JOINT LeftHandPinky3
                          {
                            OFFSET -4.66749e-05 -2.35006 6.55353e-05
                            CHANNELS 6 Xposition Yposition Zposition Zrotation Xrotation Yrotation
                            End Site
                            {
                              OFFSET 0 -2.10004 -4.50049e-05
                            }
                          }
                        }
                      }
                    }
                  }
                }
              }
            }
          }
          JOINT RightShoulder
          {
            OFFSET -4.99971 17.0001 0.000150362
            CHANNELS 6 Xposition Yposition Zposition Zrotation Xrotation Yrotation
            JOINT RightShoulder2
            {
              OFFSET -6.45 0 0
              CHANNELS 6 Xposition Yposition Zposition Zrotation Xrotation Yrotation
              JOINT RightArm
              {
                OFFSET -6.44997 0.00065539 0.00280728
                CHANNELS 6 Xposition Yposition Zposition Zrotation Xrotation Yrotation
                JOINT RightForeArm
                {
                  OFFSET 0 -32.4 -2.00006
                  CHANNELS 6 Xposition Yposition Zposition Zrotation Xrotation Yrotation
                  JOINT RightHand
                  {
                    OFFSET -4.56889e-05 -25.65 2.0001
                    CHANNELS 6 Xposition Yposition Zposition Zrotation Xrotation Yrotation
                    JOINT RightHandThumb1
                    {
                      OFFSET 0.500002 -1.49998 2.65004
                      CHANNELS 6 Xposition Yposition Zposition Zrotation Xrotation Yrotation
                      JOINT RightHandThumb2
                      {
                        OFFSET 0.000174832 -3.80002 3.70003
                        CHANNELS 6 Xposition Yposition Zposition Zrotation Xrotation Yrotation
                        JOINT RightHandThumb3
                        {
                          OFFSET -8.19145e-05 -2.99997 2.7
                          CHANNELS 6 Xposition Yposition Zposition Zrotation Xrotation Yrotation
                          End Site
                          {
                            OFFSET -4.03436e-05 -2.30003 1.79998
                          }
                        }
                      }
                    }
                    JOINT RightHandIndex
                    {
                      OFFSET 0 -1.89992 1.60006
                      CHANNELS 6 Xposition Yposition Zposition Zrotation Xrotation Yrotation
                      JOINT RightHandIndex1
                      {
                        OFFSET 2.51896e-05 -8.30002 1.89998
                        CHANNELS 6 Xposition Yposition Zposition Zrotation Xrotation Yrotation
                        JOINT RightHandIndex2
                        {
                          OFFSET -2.36469e-05 -4.49999 3.37753e-05
                          CHANNELS 6 Xposition Yposition Zposition Zrotation Xrotation Yrotation
                          JOINT RightHandIndex3
                          {
                            OFFSET -4.21568e-05 -3.40004 -7.88818e-05
                            CHANNELS 6 Xposition Yposition Zposition Zrotation Xrotation Yrotation
                            End Site
                            {
                              OFFSET -3.43319e-05 -2.59998 7.31713e-05
                            }
                          }
                        }
                      }
                    }
                    JOINT RightHandMiddle
                    {
                      OFFSET 0.250082 -2.19997 0.400015
                      CHANNELS 6 Xposition Yposition Zposition Zrotation Xrotation Yrotation
                      JOINT RightHandMiddle1
                      {
                        OFFSET -1.71223e-05 -8.3 1.00004
                        CHANNELS 6 Xposition Yposition Zposition Zrotation Xrotation Yrotation
                        JOINT RightHandMiddle2
                        {
                          OFFSET 2.02081e-05 -4.64998 -7.67336e-05
                          CHANNELS 6 Xposition Yposition Zposition Zrotation Xrotation Yrotation
                          JOINT RightHandMiddle3
                          {
                            OFFSET -2.24494e-05 -3.29996 2.89396e-05
                            CHANNELS 6 Xposition Yposition Zposition Zrotation Xrotation Yrotation
                            End Site
                            {
                              OFFSET -4.59489e-05 -2.69996 0
                            }
                          }
                        }
                      }
                    }
                    JOINT RightHandRing
                    {
                      OFFSET 0.499924 -2.14995 -0.800002
                      CHANNELS 6 Xposition Yposition Zposition Zrotation Xrotation Yrotation
                      JOINT RightHandRing1
                      {
                        OFFSET 0 -7.74993 -0.199956
                        CHANNELS 6 Xposition Yposition Zposition Zrotation Xrotation Yrotation
                        JOINT RightHandRing2
                        {
                          OFFSET 2.52203e-05 -3.80002 0
                          CHANNELS 6 Xposition Yposition Zposition Zrotation Xrotation Yrotation
                          JOINT RightHandRing3
                          {
                            OFFSET -4.20052e-05 -3.40004 -1.93332e-05
                            CHANNELS 6 Xposition Yposition Zposition Zrotation Xrotation Yrotation
                            End Site
                            {
                              OFFSET 5.80064e-05 -2.60005 9.70745e-05
                            }
                          }
                        }
                      }
                    }
                    JOINT RightHandPinky
                    {
                      OFFSET 0.749991 -1.74994 -1.84999
                      CHANNELS 6 Xposition Yposition Zposition Zrotation Xrotation Yrotation
                      JOINT RightHandPinky1
                      {
                        OFFSET 6.11264e-05 -7.15003 -1.00002
                        CHANNELS 6 Xposition Yposition Zposition Zrotation Xrotation Yrotation
                        JOINT RightHandPinky2
                        {
                          OFFSET 3.3096e-05 -3.00004 9.21935e-05
                          CHANNELS 6 Xposition Yposition Zposition Zrotation Xrotation Yrotation
                          JOINT RightHandPinky3
                          {
                            OFFSET 0 -2.34996 -5.70419e-05
                            CHANNELS 6 Xposition Yposition Zposition Zrotation Xrotation Yrotation
                            End Site
                            {
                              OFFSET 3.20145e-05 -2.10001 2.13224e-05
                            }
                          }
                        }
                      }
                    }
                  }
                }
              }
            }
          }
        }
      }
    }
  }
  JOINT LeftUpLeg
  {
    OFFSET 7.99998 0 1.52794e-05
    CHANNELS 6 Xposition Yposition Zposition Zrotation Xrotation Yrotation
    JOINT LeftLeg
    {
      OFFSET -5.45418e-05 -45 -0.999993
      CHANNELS 6 Xposition Yposition Zposition Zrotation Xrotation Yrotation
      JOINT LeftFoot
      {
        OFFSET -3.68869e-05 -41 -2.00001
        CHANNELS 6 Xposition Yposition Zposition Zrotation Xrotation Yrotation
        JOINT LeftToeBase
        {
          OFFSET 0 -7.5 12.4999
          CHANNELS 6 Xposition Yposition Zposition Zrotation Xrotation Yrotation
          JOINT LeftFootToe
          {
            OFFSET 0 0 4
            CHANNELS 6 Xposition Yposition Zposition Zrotation Xrotation Yrotation
            End Site
            {
              OFFSET 0 0 0
            }
          }
        }
      }
    }
  }
  JOINT RightUpLeg
  {
    OFFSET -7.99998 0 -1.52794e-05
    CHANNELS 6 Xposition Yposition Zposition Zrotation Xrotation Yrotation
    JOINT RightLeg
    {
      OFFSET -2.99327e-05 -45 -0.999999
      CHANNELS 6 Xposition Yposition Zposition Zrotation Xrotation Yrotation
      JOINT RightFoot
      {
        OFFSET -4.47258e-05 -41 -1.99996
        CHANNELS 6 Xposition Yposition Zposition Zrotation Xrotation Yrotation
        JOINT RightToeBase
        {
          OFFSET 0 -7.5 12.5
          CHANNELS 6 Xposition Yposition Zposition Zrotation Xrotation Yrotation
          JOINT RightFootToe
          {
            OFFSET 0 0 4
            CHANNELS 6 Xposition Yposition Zposition Zrotation Xrotation Yrotation
            End Site
            {
              OFFSET 0 0 0
            }
          }
        }
      }
    }
  }
}
MOTION
Frames:	3
Frame Time:	0.0111111
-537.767 91.368 897.472 2.42586 5.69518 -113.026 0 8 0 8.22961 11.51 6.95437 1.13687e-13 8 0 1.01758 6.03081 1.67709 0 8 0 0.530393 3.0189 0.85323 0 8 0 0.529176 3.01258 0.854047 1.13687e-13 17 5.68434e-14 1.49643 4.4645 8.93486 -1.13687e-13 10.8 5.68434e-14 2.38721 10.7092 20.9376 5 17 -5.68434e-14 1.26316 -3.67369 -0.273027 6.45 -8.52651e-14 0 -0.631753 -0.911879 -1.83806 6.45 -8.52651e-14 0 58.1272 -29.9096 65.0791 5.68434e-14 -32.4 -2 -33.3207 -30.6106 -26.5958 1.13687e-13 -25.65 2 -28.3215 -31.2514 -19.3504 -0.5 -1.5 2.65 25.4906 -14.0068 -15.7138 0 -3.8 3.7 -0.818981 15.6241 -0.499505 0 -3 2.7 0.194305 10.9634 0.289073 1.13687e-13 -1.9 1.6 -7.02001e-06 3.26398e-06 1.10661e-05 1.13687e-13 -8.3 1.9 -1.15043 3.72348 -0.106169 0 -4.5 -1.13687e-13 -7.58773 0.0763017 0.462643 0 -3.4 0 -4.62713 0.0275925 0.380327 -0.25 -2.2 0.4 -7.02001e-06 3.26398e-06 1.10661e-05 -1.13687e-13 -8.3 1 -1.04491 4.46404 -0.0601829 0 -4.65 0 -3.32198 -0.0124013 -0.00169517 0 -3.3 0 -2.87932e-05 -0.0129503 -0.00118251 -0.5 -2.15 -0.8 -7.02001e-06 3.26398e-06 1.10661e-05 -1.13687e-13 -7.75 -0.2 -0.802883 6.03559 0.0253839 1.13687e-13 -3.8 0 -1.55213 -0.0124091 -0.0192777 1.13687e-13 -3.4 0 0.193827 -0.00931386 -0.0162641 -0.75 -1.75 -1.85 -7.02001e-06 3.26398e-06 1.10661e-05 0 -7.15 -1 -0.699333 7.01062 0.0628432 1.13687e-13 -3 0 -13.3291 -0.00213484 -0.00197111 0 -2.35 0 0.00211146 -0.00288125 -0.00035503 -5 17 0 2.46927 -1.53797 3.20306 -6.45 -2.84217e-14 1.13687e-13 -1.35394 0.0443653 -2.18703 -6.45 -2.84217e-14 0 -16.9234 -46.4614 -8.82318 0 -32.4 -2 24.5205 -63.5801 14.3287 -1.13687e-13 -25.65 2 -40.8091 5.99506 34.7296 0.5 -1.5 2.65 -4.16999 68.4758 -160.625 0 -3.8 3.7 0.229611 -0.540641 0.0429226 0 -3 2.7 0.0444096 8.39815 0.00949843 1.13687e-13 -1.9 1.6 -5.22742e-05 2.53413e-05 -3.21431e-05 1.13687e-13 -8.3 1.9 27.6846 -3.86869 0.694486 0 -4.5 -1.13687e-13 1.96522 0.624512 0.0571622 0 -3.4 0 -0.000299278 0.604048 0.0222173 0.25 -2.2 0.4 -5.22742e-05 2.53413e-05 -3.21431e-05 0 -8.3 1 23.0431 7.85474 -2.0311 0 -4.65 -1.13687e-13 36.4933 -0.00313769 0.00694702 -1.13687e-13 -3.3 1.13687e-13 25.0099 0.000371497 0.00454364 0.5 -2.15 -0.8 -5.22742e-05 2.53413e-05 -3.21431e-05 0 -7.75 -0.2 53.1481 2.82328 -3.96816 0 -3.8 0 63.4156 -0.00159012 -0.0513318 5.68434e-14 -3.4 0 45.1107 -0.0356367 -0.0340179 0.75 -1.75 -1.85 -5.22742e-05 2.53413e-05 -3.21431e-05 1.13687e-13 -7.15 -1 62.0265 -0.304461 -4.61899 0 -3 0 56.7506 -0.00944405 -0.122174 0 -2.35 -1.13687e-13 39.4815 -0.0656504 -0.0735207 8 0 -5.68434e-14 14.3501 -31.4667 -11.0303 0 -45 -1 1.16735 -0.825905 11.6568 0 -41 -2 -10.4642 26.6108 -24.1286 2.27374e-13 -7.5 12.5 4.27327e-06 -6.58282e-06 -9.32286e-06 0 7.10543e-15 4 3.15865 -6.95352 -13.3565 -8 0 0 1.11457 -18.5712 -5.71747 0 -45 -1 -0.629521 35.8243 7.25324 0 -41 -2 1.79626 -17.1847 -25.2146 1.13687e-13 -7.5 12.5 -7.8107e-07 -6.67307e-06 -3.99012e-05 0 0 4 1.77745 -1.13118 15.7115 
-537.782 91.3767 897.465 2.43085 5.69106 -113.074 0 8 5.68434e-14 8.26021 11.5494 6.92869 0 8 -2.84217e-14 1.00145 6.02987 1.6789 -1.13687e-13 8 -5.68434e-14 0.522426 3.01858 0.853057 -1.13687e-13 8 -1.13687e-13 0.521528 3.01217 0.853758 0 17 0 1.48705 4.44459 8.94004 1.13687e-13 10.8 -1.13687e-13 2.36955 10.6611 20.9504 5 17 0 1.23467 -3.68855 -0.242122 6.45 -5.68434e-14 -5.68434e-14 -0.632012 -0.910877 -1.83009 6.45 5.68434e-14 0 57.6606 -29.259 65.4143 0 -32.4 -2 -33.6672 -30.9382 -27.234 0 -25.65 2 -27.138 -32.6687 -18.2686 -0.5 -1.5 2.65 18.9695 -14.934 -7.11912 0 -3.8 3.7 -2.49984 19.5339 -1.74367 1.13687e-13 -3 2.7 0.543723 9.87622 0.88729 0 -1.9 1.6 -7.02001e-06 3.26398e-06 1.10661e-05 -1.13687e-13 -8.3 1.9 -1.01593 1.9995 -0.0960565 0 -4.5 0 -4.88904 0.0412438 0.249208 -1.13687e-13 -3.4 0 -2.4984 0.0189716 0.210048 -0.25 -2.2 0.4 -7.02001e-06 3.26398e-06 1.10661e-05 -1.13687e-13 -8.3 1 -0.897986 2.94884 -0.0557049 -1.13687e-13 -4.65 0 -3.32198 -0.0129755 -0.0020586 0 -3.3 -1.13687e-13 -2.83314e-05 -0.0139126 -0.00151873 -0.5 -2.15 -0.8 -7.02001e-06 3.26398e-06 1.10661e-05 0 -7.75 -0.2 -0.635176 4.89119 0.0183415 0 -3.8 0 -1.61893 -0.00961437 -0.0138705 0 -3.4 0 0.139562 -0.00741097 -0.0117208 -0.75 -1.75 -1.85 -7.02001e-06 3.26398e-06 1.10661e-05 -1.13687e-13 -7.15 -1 -0.513619 6.0095 0.0496877 0 -3 0 -13.3276 -0.00283541 -0.00253031 0 -2.35 1.13687e-13 0.00151447 -0.00390986 -0.000723953 -5 17 0 2.45421 -1.51683 3.23638 -6.45 2.84217e-14 0 -1.35057 0.0412815 -2.1889 -6.45 2.84217e-14 -1.13687e-13 -17.005 -46.4063 -9.00158 0 -32.4 -2 25.4086 -63.3266 14.3979 0 -25.65 2 -40.4847 6.74448 32.8509 0.5 -1.5 2.65 -14.2279 66.7072 -153.117 0 -3.8 3.7 0.229186 -0.562376 0.0445965 0 -3 2.7 0.0418534 8.87956 0.00769489 0 -1.9 1.6 -5.22742e-05 2.53413e-05 -3.21431e-05 -1.13687e-13 -8.3 1.9 28.0836 -3.78385 0.678441 1.13687e-13 -4.5 1.13687e-13 1.96521 0.624611 0.0581311 -1.13687e-13 -3.4 0 -0.000310686 0.604143 0.023276 0.25 -2.2 0.4 -5.22742e-05 2.53413e-05 -3.21431e-05 0 -8.3 1 23.6643 7.71783 -2.05977 0 -4.65 0 36.646 -0.00417746 0.005874 -1.13687e-13 -3.3 0 25.1012 0.000197441 0.00418775 0.5 -2.15 -0.8 -5.22742e-05 2.53413e-05 -3.21431e-05 0 -7.75 -0.2 54.2655 2.88795 -4.16363 0 -3.8 0 63.0029 -0.00138497 -0.0150572 0 -3.4 -1.13687e-13 44.7147 -0.0110097 -0.0105575 0.75 -1.75 -1.85 -5.22742e-05 2.53413e-05 -3.21431e-05 0 -7.15 -1 63.5854 -0.327745 -4.89947 0 -3 0 56.0417 -0.00973377 -0.0610805 -5.68434e-14 -2.35 0 38.906 -0.032883 -0.036821 8 2.84217e-14 5.68434e-14 14.3784 -31.4394 -11.0097 2.27374e-13 -45 -1 1.16908 -0.835346 11.6506 2.27374e-13 -41 -2 -10.4797 26.624 -24.0306 0 -7.5 12.5 4.27327e-06 -6.58282e-06 -9.32286e-06 0 7.10543e-15 4 3.16365 -6.98217 -13.3573 -8 2.84217e-14 -5.68434e-14 1.10454 -18.5494 -5.75591 2.27374e-13 -45 -1 -0.629715 35.7886 7.24914 0 -41 -2 1.7994 -17.1687 -25.1006 -1.13687e-13 -7.5 12.5 -7.8107e-07 -6.6616e-06 -3.99012e-05 1.13687e-13 -4.44089e-16 4 1.7701 -1.13628 15.7116 
-537.797 91.3857 897.457 2.4357 5.68696 -113.122 0 8 0 8.29216 11.5868 6.90615 0 8 5.68434e-14 0.986463 6.02903 1.6838 0 8 0 0.515058 3.0183 0.854504 -1.13687e-13 8 1.13687e-13 0.514348 3.01176 0.853816 -1.13687e-13 17 0 1.47866 4.42694 8.94144 0 10.8 0 2.35415 10.6183 20.9541 5 17 0 1.20402 -3.70114 -0.218907 6.45 -5.68434e-14 0 -0.632057 -0.909861 -1.81958 6.45 0 5.68434e-14 57.245 -28.634 65.689 -5.68434e-14 -32.4 -2 -33.9487 -31.179 -27.8555 1.13687e-13 -25.65 2 -26.1884 -34.024 -17.4551 -0.5 -1.5 2.65 11.3838 -16.7077 3.02734 0 -3.8 3.7 -3.78744 23.9151 -2.82315 0 -3 2.7 0.85366 8.73536 1.38768 0 -1.9 1.6 -7.02001e-06 3.26398e-06 1.10661e-05 0 -8.3 1.9 -0.989769 0.481146 -0.0730892 1.13687e-13 -4.5 0 -2.96166 0.00890191 0.0761794 0 -3.4 0 -0.910728 0.0058922 0.0679686 -0.25 -2.2 0.4 -7.02001e-06 3.26398e-06 1.10661e-05 0 -8.3 1 -0.839549 1.60251 -0.0399193 0 -4.65 0 -3.32198 -0.0132294 -0.0023632 0 -3.3 0 -2.78522e-05 -0.0146777 -0.00180939 -0.5 -2.15 -0.8 -7.02001e-06 3.26398e-06 1.10661e-05 0 -7.75 -0.2 -0.5262 3.85728 0.0204061 0 -3.8 0 -1.78004 -0.00213685 -0.000821622 0 -3.4 0 0.00869539 -0.00199556 -0.000763183 -0.75 -1.75 -1.85 -7.02001e-06 3.26398e-06 1.10661e-05 0 -7.15 -1 -0.373372 5.10966 0.0449104 1.13687e-13 -3 -1.13687e-13 -13.3262 -0.00346502 -0.00301585 0 -2.35 0 7.11677e-05 -0.00484617 -0.00106777 -5 17 5.68434e-14 2.4422 -1.49913 3.2703 -6.45 8.52651e-14 0 -1.34821 0.0379889 -2.19017 -6.45 2.84217e-14 5.68434e-14 -17.0733 -46.3463 -9.15314 -1.13687e-13 -32.4 -2 26.2011 -63.1042 14.3885 0 -25.65 2 -40.1414 7.449 31.1389 0.5 -1.5 2.65 -22.2938 64.6422 -147.426 -1.13687e-13 -3.8 3.7 0.23015 -0.545936 0.0463395 0 -3 2.7 0.0387456 9.38994 0.00491515 0 -1.9 1.6 -5.22742e-05 2.53413e-05 -3.21431e-05 0 -8.3 1.9 28.3984 -3.70713 0.663342 -1.13687e-13 -4.5 0 1.9652 0.624706 0.0590996 -1.13687e-13 -3.4 -1.13687e-13 -0.000322097 0.604235 0.0243349 0.25 -2.2 0.4 -5.22742e-05 2.53413e-05 -3.21431e-05 0 -8.3 1 24.3324 7.58534 -2.0943 1.13687e-13 -4.65 0 36.8047 -0.0101997 0.00896037 0 -3.3 0 25.1961 -0.00196725 0.00729565 0.5 -2.15 -0.8 -5.22742e-05 2.53413e-05 -3.21431e-05 1.13687e-13 -7.75 -0.2 55.2651 2.93624 -4.33741 0 -3.8 -1.13687e-13 62.6154 -0.001144 0.008513 8.52651e-14 -3.4 -1.13687e-13 44.3503 0.00551859 0.00479804 0.75 -1.75 -1.85 -5.22742e-05 2.53413e-05 -3.21431e-05 0 -7.15 -1 65.0144 -0.35629 -5.16075 0 -3 0 55.4095 -0.00995828 -0.0102163 5.68434e-14 -2.35 0 38.3978 -0.00536935 -0.00620048 8 2.84217e-14 0 14.4058 -31.4125 -11.0014 0 -45 -1 1.17068 -0.84412 11.6456 0 -41 -2 -10.5001 26.6314 -23.9186 0 -7.5 12.5 4.27327e-06 -6.58282e-06 -9.32286e-06 -1.13687e-13 -1.42109e-14 4 3.16808 -7.00932 -13.3581 -8 2.84217e-14 5.68434e-14 1.09396 -18.5272 -5.79637 0 -45 -1 -0.629987 35.7523 7.24493 1.13687e-13 -41 -2 1.80183 -17.1521 -24.9843 0 -7.5 12.5 -7.8107e-07 -6.65016e-06 -3.99012e-05 0 0 4 1.76235 -1.14107 15.7116 
